# File created by Blade
# Date/Time:  Thu Jan 22 19:29:47 2015
#---------------------------------------------------------
:version 1.10
:name HOM
:units
  mass 1.0
  length 1.000000
  angle deg
:documentation
     Acclaim Skeleton File
:root
   axis xyz
   order TX TY TZ RX RY RZ
   position 0.000000 0.000000 0.000000
   orientation 0 0 0
:bonedata
   begin
      id 1
      name RightUpLeg_dum
      direction -1.000000 0.000000 0.000000
      length 4.478084
      axis 0.0 0.0 0.0 xyz
   end
   begin
      id 2
      name LeftUpLeg_dum
      direction 1.000000 0.000000 0.000000
      length 4.478084
      axis 0.0 0.0 0.0 xyz
   end
   begin
      id 3
      name Spine_dum
      direction 0.000000 1.000000 0.000000
      length 6.068208
      axis 0.0 0.0 0.0 xyz
   end
   begin
      id 4
      name RightUpLeg
      direction 0.000000 -1.000000 0.000000
      length 16.405774
      axis 0.0 0.0 0.0 xyz
      dof rx ry rz
   end
   begin
      id 5
      name RightLeg
      direction 0.000000 -1.000000 0.000000
      length 14.644143
      axis 0.0 0.0 0.0 xyz
      dof rx ry rz
   end
   begin
      id 6
      name RightFoot
      direction 0.000000 -0.258819 0.965926
      length 5.806150
      axis 15.0 0.0 0.0 xyz
      dof rx ry rz
   end
   begin
      id 7
      name RightToeBase
      direction 0.000000 0.000000 1.000000
      length 2.952750
      axis 0.0 0.0 0.0 xyz
      dof rx ry rz
   end
   begin
      id 8
      name LeftUpLeg
      direction 0.000000 -1.000000 0.000000
      length 16.405774
      axis 0.0 0.0 0.0 xyz
      dof rx ry rz
   end
   begin
      id 9
      name LeftLeg
      direction 0.000000 -1.000000 0.000000
      length 14.644143
      axis 0.0 0.0 0.0 xyz
      dof rx ry rz
   end
   begin
      id 10
      name LeftFoot
      direction 0.000000 -0.258819 0.965926
      length 5.806150
      axis 15.0 0.0 0.0 xyz
      dof rx ry rz
   end
   begin
      id 11
      name LeftToeBase
      direction 0.000000 0.000000 1.000000
      length 2.952750
      axis 0.0 0.0 0.0 xyz
      dof rx ry rz
   end
   begin
      id 12
      name Spine
      direction 0.000000 1.000000 0.000000
      length 0.000000
      axis 0.0 0.0 0.0 xyz
      dof rx ry rz
   end
   begin
      id 13
      name Spine_dum1
      direction 0.000000 1.000000 0.000000
      length 10.013923
      axis 0.0 0.0 0.0 xyz
   end
   begin
      id 14
      name Spine_dum2
      direction 0.000000 1.000000 0.000000
      length 10.013923
      axis 0.0 0.0 0.0 xyz
   end
   begin
      id 15
      name Spine_dum3
      direction 0.000000 1.000000 0.000000
      length 15.777476
      axis 0.0 0.0 0.0 xyz
   end
   begin
      id 16
      name RightShoulder
      direction -1.000000 0.000000 0.000000
      length 7.190220
      axis 0.0 0.0 90.0 xyz
      dof rx ry rz
   end
   begin
      id 17
      name RightArm
      direction -1.000000 0.000000 0.000000
      length 10.177469
      axis 0.0 0.0 90.0 xyz
      dof rx ry rz
   end
   begin
      id 18
      name RightForeArm
      direction -1.000000 0.000000 0.000000
      length 8.392114
      axis 0.0 0.0 90.0 xyz
      dof ry rz rx
   end
   begin
      id 19
      name RightHand
      direction -1.000000 0.000000 0.000000
      length 0.000000
      axis 0.0 0.0 90.0 xyz
      dof rx ry rz
   end
   begin
      id 20
      name RightHand_dum1
      direction -1.000000 0.000000 0.000000
      length 3.937000
      axis 0.0 0.0 90.0 xyz
   end
   begin
      id 21
      name RightHand_dum2
      direction 0.000000 0.000000 0.000000
      length 0.000000
      axis 0.0 0.0 90.0 xyz
   end
   begin
      id 22
      name RightHandThumb1
      direction 0.000000 0.000000 1.000000
      length 3.937000
      axis 0.0 0.0 90.0 xyz
      dof rx rz ry
   end
   begin
      id 23
      name LeftShoulder
      direction 1.000000 0.000000 0.000000
      length 7.190220
      axis 0.0 0.0 -90.0 xyz
      dof rx ry rz
   end
   begin
      id 24
      name LeftArm
      direction 1.000000 0.000000 0.000000
      length 10.177469
      axis 0.0 0.0 -90.0 xyz
      dof rx ry rz
   end
   begin
      id 25
      name LeftForeArm
      direction 1.000000 0.000000 0.000000
      length 8.392114
      axis 0.0 0.0 -90.0 xyz
      dof ry rz rx
   end
   begin
      id 26
      name LeftHand
      direction 1.000000 0.000000 0.000000
      length 0.000000
      axis 0.0 0.0 -90.0 xyz
      dof rx ry rz
   end
   begin
      id 27
      name LeftHand_dum1
      direction 1.000000 0.000000 0.000000
      length 3.937000
      axis 0.0 0.0 -90.0 xyz
   end
   begin
      id 28
      name LeftHand_dum2
      direction 0.000000 0.000000 0.000000
      length 0.000000
      axis 0.0 0.0 -90.0 xyz
   end
   begin
      id 29
      name LeftHandThumb1
      direction 0.000000 0.000000 1.000000
      length 3.937000
      axis 0.0 0.0 -90.0 xyz
      dof rx rz ry
   end
   begin
      id 30
      name Head
      direction 0.000000 1.000000 0.000000
      length 4.527550
      axis 0.0 0.0 0.0 xyz
      dof rx ry rz
   end
:hierarchy
   begin
      root RightUpLeg_dum LeftUpLeg_dum Spine_dum
      RightUpLeg_dum RightUpLeg
      LeftUpLeg_dum LeftUpLeg
      Spine_dum Spine
      RightUpLeg RightLeg
      RightLeg RightFoot
      RightFoot RightToeBase
      LeftUpLeg LeftLeg
      LeftLeg LeftFoot
      LeftFoot LeftToeBase
      Spine Spine_dum1 Spine_dum2 Spine_dum3
      Spine_dum1 RightShoulder
      Spine_dum2 LeftShoulder
      Spine_dum3 Head
      RightShoulder RightArm
      RightArm RightForeArm
      RightForeArm RightHand
      RightHand RightHand_dum1 RightHand_dum2
      RightHand_dum2 RightHandThumb1
      LeftShoulder LeftArm
      LeftArm LeftForeArm
      LeftForeArm LeftHand
      LeftHand LeftHand_dum1 LeftHand_dum2
      LeftHand_dum2 LeftHandThumb1
   end

# File created by Blade
# Date/Time:  Thu Jan 22 19:29:39 2015
# Frame Rate: 120.000 fps
#------------------------------------------------------
:FULLY-SPECIFIED
:DEGREES
196
root -2.498730 33.163798 0.123670 8.742486 -5.819538 2.634815
RightUpLeg -4.291012 -4.685172 -1.020348
RightLeg 0.196550 -0.000000 -0.000000
RightFoot -10.527581 -4.222413 3.175328
RightToeBase 4.916955 -0.000000 -0.000000
LeftUpLeg -4.194156 3.755399 0.235574
LeftLeg 2.464388 -0.000000 -0.000000
LeftFoot -10.927934 2.942963 -16.693804
LeftToeBase 8.203132 -0.000000 -0.000000
Spine -8.497270 -1.268341 -2.864928
RightShoulder -18.991748 -17.453709 -22.074418
RightArm 16.732276 32.531472 58.629838
RightForeArm -4.401802 -0.000000 41.199854
RightHand 13.615921 0.000000 -10.150961
RightHandThumb1 -24.326973 -0.000000 -32.862282
LeftShoulder -25.085757 8.092710 26.297488
LeftArm 14.349731 -37.492667 -45.454092
LeftForeArm 5.193000 -0.000000 21.811688
LeftHand -3.785189 -0.000000 8.833487
LeftHandThumb1 -26.253704 0.000000 33.147579
Head 22.375028 11.305337 -1.073787
197
root -2.511525 33.161417 0.116891 8.740845 -5.926115 2.623967
RightUpLeg -4.321443 -4.554430 -1.001181
RightLeg 0.212515 -0.000000 -0.000000
RightFoot -10.533273 -4.247134 3.136222
RightToeBase 4.899169 -0.000000 -0.000000
LeftUpLeg -4.193028 3.786224 0.257706
LeftLeg 2.484303 -0.000000 -0.000000
LeftFoot -10.975307 3.005006 -16.741055
LeftToeBase 8.218873 -0.000000 -0.000000
Spine -8.455825 -1.207649 -2.909934
RightShoulder -19.078625 -17.644496 -21.699903
RightArm 16.597981 31.978978 59.499551
RightForeArm -4.361931 -0.000000 42.501235
RightHand 14.003409 -0.000000 -10.525541
RightHandThumb1 -24.326973 -0.000000 -32.862282
LeftShoulder -25.126330 8.185454 26.208614
LeftArm 14.280959 -37.577428 -45.786959
LeftForeArm 5.697398 0.000000 22.804061
LeftHand -3.577444 -0.000000 9.077894
LeftHandThumb1 -26.253704 0.000000 33.147579
Head 22.468761 11.209147 -1.033919
198
root -2.523491 33.159533 0.109167 8.745888 -6.026062 2.618467
RightUpLeg -4.364300 -4.435146 -0.991183
RightLeg 0.235933 -0.000000 -0.000000
RightFoot -10.541973 -4.253937 3.110787
RightToeBase 4.893985 -0.000000 -0.000000
LeftUpLeg -4.210735 3.861237 0.267966
LeftLeg 2.518013 -0.000000 -0.000000
LeftFoot -11.016418 3.037020 -16.747896
LeftToeBase 8.238559 -0.000000 -0.000000
Spine -8.415855 -1.135771 -2.957769
RightShoulder -19.176582 -17.831684 -21.340621
RightArm 16.431812 31.455081 60.434465
RightForeArm -4.470451 -0.000000 43.828392
RightHand 14.182716 -0.000000 -10.909253
RightHandThumb1 -24.326973 -0.000000 -32.862282
LeftShoulder -25.173588 8.275664 26.114239
LeftArm 14.262014 -37.589140 -46.163859
LeftForeArm 5.958649 -0.000000 23.818903
LeftHand -3.410790 0.000000 9.933377
LeftHandThumb1 -26.253704 0.000000 33.147579
Head 22.528838 11.100129 -0.983999
199
root -2.538846 33.158364 0.101635 8.730164 -6.087388 2.584188
RightUpLeg -4.380738 -4.386500 -0.938260
RightLeg 0.266243 -0.000000 -0.000000
RightFoot -10.535932 -4.231506 3.082284
RightToeBase 4.938743 -0.000000 -0.000000
LeftUpLeg -4.210676 3.904091 0.323323
LeftLeg 2.556321 -0.000000 -0.000000
LeftFoot -11.060755 3.045429 -16.778182
LeftToeBase 8.232460 -0.000000 -0.000000
Spine -8.331862 -1.091520 -2.965434
RightShoulder -19.292390 -18.036317 -20.979963
RightArm 16.314067 30.876632 61.395500
RightForeArm -4.835345 -0.000000 45.091909
RightHand 14.199897 -0.000000 -11.510226
RightHandThumb1 -24.326973 -0.000000 -32.862282
LeftShoulder -25.212240 8.302262 26.024467
LeftArm 14.178261 -37.519087 -46.503429
LeftForeArm 6.314571 -0.000000 24.863177
LeftHand -3.329403 0.000000 10.909640
LeftHandThumb1 -26.253704 0.000000 33.147579
Head 22.537619 11.024532 -0.902652
200
root -2.552928 33.157052 0.087954 8.745947 -6.121105 2.577236
RightUpLeg -4.450083 -4.335312 -0.907119
RightLeg 0.324564 -0.000000 -0.000000
RightFoot -10.555535 -4.239732 3.076783
RightToeBase 4.937983 -0.000000 -0.000000
LeftUpLeg -4.273179 3.905857 0.352492
LeftLeg 2.623306 -0.000000 -0.000000
LeftFoot -11.103832 3.074568 -16.825057
LeftToeBase 8.288043 -0.000000 -0.000000
Spine -8.278647 -1.091975 -3.001804
RightShoulder -19.382566 -18.229313 -20.636352
RightArm 16.212275 30.315505 62.401271
RightForeArm -5.245720 -0.000000 46.230733
RightHand 14.342397 -0.000000 -11.672145
RightHandThumb1 -24.326973 -0.000000 -32.862282
LeftShoulder -25.266931 8.362220 25.934730
LeftArm 14.177502 -37.460793 -46.932790
LeftForeArm 6.733395 0.000000 25.925026
LeftHand -3.275793 -0.000000 12.070561
LeftHandThumb1 -26.253704 0.000000 33.147579
Head 22.483591 10.962910 -0.811621
201
root -2.565754 33.155620 0.078760 8.756438 -6.190693 2.562490
RightUpLeg -4.513020 -4.266484 -0.877226
RightLeg 0.385732 -0.000000 -0.000000
RightFoot -10.577054 -4.227369 3.056907
RightToeBase 4.922165 -0.000000 -0.000000
LeftUpLeg -4.301424 3.985091 0.379189
LeftLeg 2.656068 -0.000000 -0.000000
LeftFoot -11.124360 3.061771 -16.867084
LeftToeBase 8.322382 -0.000000 -0.000000
Spine -8.220897 -1.054896 -3.020267
RightShoulder -19.467147 -18.363266 -20.343250
RightArm 16.013173 29.690491 63.349999
RightForeArm -5.705147 -0.000000 47.319980
RightHand 14.330510 -0.000000 -11.623715
RightHandThumb1 -24.326973 -0.000000 -32.862282
LeftShoulder -25.324161 8.380637 25.832156
LeftArm 14.151123 -37.448563 -47.383581
LeftForeArm 7.311639 0.000000 27.037797
LeftHand -3.354528 0.000000 13.175670
LeftHandThumb1 -26.253704 0.000000 33.147579
Head 22.382805 10.913597 -0.721218
202
root -2.581017 33.153849 0.072622 8.756941 -6.227111 2.540766
RightUpLeg -4.544929 -4.238270 -0.832558
RightLeg 0.426065 -0.000000 -0.000000
RightFoot -10.586534 -4.214993 3.016948
RightToeBase 4.901987 -0.000000 -0.000000
LeftUpLeg -4.313020 4.060692 0.419311
LeftLeg 2.678466 -0.000000 -0.000000
LeftFoot -11.150809 3.040673 -16.882576
LeftToeBase 8.316791 -0.000000 -0.000000
Spine -8.176070 -1.065717 -3.031194
RightShoulder -19.515538 -18.507470 -20.059109
RightArm 15.784610 28.938629 64.258644
RightForeArm -6.297149 -0.000000 48.343913
RightHand 14.349071 0.000000 -11.944794
RightHandThumb1 -24.326973 -0.000000 -32.862282
LeftShoulder -25.361490 8.443864 25.725153
LeftArm 14.086898 -37.456747 -47.842495
LeftForeArm 7.835007 -0.000000 28.196492
LeftHand -3.355548 -0.000000 14.143312
LeftHandThumb1 -26.253704 0.000000 33.147579
Head 22.287152 10.912423 -0.605218
